<mxfile host="Electron" modified="2023-07-26T20:13:42.021Z" agent="Mozilla/5.0 (Windows NT 10.0; Win64; x64) AppleWebKit/537.36 (KHTML, like Gecko) draw.io/21.6.5 Chrome/114.0.5735.243 Electron/25.3.1 Safari/537.36" etag="41pgQ_u1ZM-HlhR4o4XM" version="21.6.5" type="device">
  <diagram name="Página-1" id="q98Pp873-Ui74Ek49OqV">
    <mxGraphModel dx="1480" dy="877" grid="1" gridSize="10" guides="1" tooltips="1" connect="1" arrows="1" fold="1" page="0" pageScale="1" pageWidth="827" pageHeight="1169" math="0" shadow="0">
      <root>
        <mxCell id="0" />
        <mxCell id="1" parent="0" />
        <mxCell id="8VEzX88aH72CJWX0660f-1" value="Uma clínica veterinária deseja cadastrar os pets que são atendidos em seu local.&#xa;&#xa;&#xa;- a clínica contém um endereço;&#xa;- os pets deverão ter nome, data de nascimento, tipo de pet;&#xa;- os pets deverão ter raça;&#xa;- os pets deverão ter donos;&#xa;- a clínica deseja cadastrar seus veterinários e todo atendimento de pet será feito por um veterinário;" style="text;whiteSpace=wrap;fontSize=14;" parent="1" vertex="1">
          <mxGeometry x="20" y="10" width="640" height="150" as="geometry" />
        </mxCell>
        <mxCell id="8VEzX88aH72CJWX0660f-10" style="edgeStyle=orthogonalEdgeStyle;rounded=0;orthogonalLoop=1;jettySize=auto;html=1;endArrow=none;endFill=0;" parent="1" source="8VEzX88aH72CJWX0660f-2" target="8VEzX88aH72CJWX0660f-4" edge="1">
          <mxGeometry relative="1" as="geometry" />
        </mxCell>
        <mxCell id="8VEzX88aH72CJWX0660f-19" style="edgeStyle=orthogonalEdgeStyle;rounded=0;orthogonalLoop=1;jettySize=auto;html=1;entryX=0;entryY=0.5;entryDx=0;entryDy=0;endArrow=none;endFill=0;" parent="1" source="8VEzX88aH72CJWX0660f-2" target="8VEzX88aH72CJWX0660f-18" edge="1">
          <mxGeometry relative="1" as="geometry" />
        </mxCell>
        <mxCell id="8VEzX88aH72CJWX0660f-2" value="&lt;font style=&quot;font-size: 14px;&quot;&gt;Clínica&lt;/font&gt;" style="rounded=0;whiteSpace=wrap;html=1;" parent="1" vertex="1">
          <mxGeometry x="910" y="242" width="120" height="60" as="geometry" />
        </mxCell>
        <mxCell id="8VEzX88aH72CJWX0660f-38" style="edgeStyle=orthogonalEdgeStyle;rounded=0;orthogonalLoop=1;jettySize=auto;html=1;endArrow=none;endFill=0;" parent="1" source="8VEzX88aH72CJWX0660f-3" target="8VEzX88aH72CJWX0660f-33" edge="1">
          <mxGeometry relative="1" as="geometry" />
        </mxCell>
        <mxCell id="8VEzX88aH72CJWX0660f-43" style="edgeStyle=orthogonalEdgeStyle;rounded=0;orthogonalLoop=1;jettySize=auto;html=1;entryX=1;entryY=0.5;entryDx=0;entryDy=0;endArrow=none;endFill=0;" parent="1" source="8VEzX88aH72CJWX0660f-3" target="8VEzX88aH72CJWX0660f-32" edge="1">
          <mxGeometry relative="1" as="geometry" />
        </mxCell>
        <mxCell id="dy4QvHthk6uzmk_Si4YG-12" style="edgeStyle=orthogonalEdgeStyle;rounded=0;orthogonalLoop=1;jettySize=auto;html=1;exitX=0.5;exitY=1;exitDx=0;exitDy=0;entryX=1;entryY=0.5;entryDx=0;entryDy=0;endArrow=none;endFill=0;" parent="1" source="8VEzX88aH72CJWX0660f-3" target="dy4QvHthk6uzmk_Si4YG-5" edge="1">
          <mxGeometry relative="1" as="geometry" />
        </mxCell>
        <mxCell id="dy4QvHthk6uzmk_Si4YG-13" style="edgeStyle=orthogonalEdgeStyle;rounded=0;orthogonalLoop=1;jettySize=auto;html=1;exitX=0.5;exitY=1;exitDx=0;exitDy=0;entryX=0;entryY=0.5;entryDx=0;entryDy=0;endArrow=none;endFill=0;" parent="1" source="8VEzX88aH72CJWX0660f-3" target="dy4QvHthk6uzmk_Si4YG-8" edge="1">
          <mxGeometry relative="1" as="geometry" />
        </mxCell>
        <mxCell id="8VEzX88aH72CJWX0660f-3" value="&lt;span style=&quot;font-size: 14px;&quot;&gt;Pet&lt;/span&gt;" style="rounded=0;whiteSpace=wrap;html=1;" parent="1" vertex="1">
          <mxGeometry x="230" y="452" width="120" height="60" as="geometry" />
        </mxCell>
        <mxCell id="8VEzX88aH72CJWX0660f-8" style="edgeStyle=orthogonalEdgeStyle;rounded=0;orthogonalLoop=1;jettySize=auto;html=1;exitX=0;exitY=0.5;exitDx=0;exitDy=0;entryX=1;entryY=0.5;entryDx=0;entryDy=0;endArrow=none;endFill=0;" parent="1" source="dy4QvHthk6uzmk_Si4YG-18" target="8VEzX88aH72CJWX0660f-3" edge="1">
          <mxGeometry relative="1" as="geometry">
            <Array as="points">
              <mxPoint x="410" y="482" />
            </Array>
          </mxGeometry>
        </mxCell>
        <mxCell id="8VEzX88aH72CJWX0660f-4" value="&lt;font style=&quot;font-size: 14px;&quot;&gt;Veterinário&lt;/font&gt;" style="rounded=0;whiteSpace=wrap;html=1;" parent="1" vertex="1">
          <mxGeometry x="910" y="452" width="120" height="60" as="geometry" />
        </mxCell>
        <mxCell id="8VEzX88aH72CJWX0660f-11" style="edgeStyle=orthogonalEdgeStyle;rounded=0;orthogonalLoop=1;jettySize=auto;html=1;exitX=0.5;exitY=1;exitDx=0;exitDy=0;endArrow=none;endFill=0;" parent="1" source="8VEzX88aH72CJWX0660f-12" target="8VEzX88aH72CJWX0660f-3" edge="1">
          <mxGeometry relative="1" as="geometry" />
        </mxCell>
        <mxCell id="8VEzX88aH72CJWX0660f-31" style="edgeStyle=orthogonalEdgeStyle;rounded=0;orthogonalLoop=1;jettySize=auto;html=1;exitX=0;exitY=0.5;exitDx=0;exitDy=0;entryX=1;entryY=0.5;entryDx=0;entryDy=0;endArrow=none;endFill=0;" parent="1" source="8VEzX88aH72CJWX0660f-5" target="8VEzX88aH72CJWX0660f-30" edge="1">
          <mxGeometry relative="1" as="geometry" />
        </mxCell>
        <mxCell id="8VEzX88aH72CJWX0660f-5" value="&lt;font style=&quot;font-size: 14px;&quot;&gt;Cliente&lt;/font&gt;" style="rounded=0;whiteSpace=wrap;html=1;" parent="1" vertex="1">
          <mxGeometry x="230" y="242" width="120" height="60" as="geometry" />
        </mxCell>
        <mxCell id="8VEzX88aH72CJWX0660f-13" value="" style="edgeStyle=orthogonalEdgeStyle;rounded=0;orthogonalLoop=1;jettySize=auto;html=1;exitX=0.5;exitY=1;exitDx=0;exitDy=0;endArrow=none;endFill=0;" parent="1" source="8VEzX88aH72CJWX0660f-5" target="8VEzX88aH72CJWX0660f-12" edge="1">
          <mxGeometry relative="1" as="geometry">
            <mxPoint x="290" y="302" as="sourcePoint" />
            <mxPoint x="290" y="452" as="targetPoint" />
          </mxGeometry>
        </mxCell>
        <mxCell id="8VEzX88aH72CJWX0660f-12" value="&lt;font style=&quot;font-size: 14px;&quot;&gt;Possui&lt;/font&gt;" style="rhombus;whiteSpace=wrap;html=1;" parent="1" vertex="1">
          <mxGeometry x="250" y="342" width="80" height="80" as="geometry" />
        </mxCell>
        <mxCell id="8VEzX88aH72CJWX0660f-17" value="&lt;font style=&quot;font-size: 14px;&quot;&gt;Cadastra&lt;/font&gt;" style="rhombus;whiteSpace=wrap;html=1;" parent="1" vertex="1">
          <mxGeometry x="930" y="342" width="80" height="80" as="geometry" />
        </mxCell>
        <mxCell id="8VEzX88aH72CJWX0660f-18" value="&lt;font style=&quot;font-size: 14px;&quot;&gt;Endereço&lt;/font&gt;" style="ellipse;whiteSpace=wrap;html=1;" parent="1" vertex="1">
          <mxGeometry x="1070" y="252" width="120" height="40" as="geometry" />
        </mxCell>
        <mxCell id="8VEzX88aH72CJWX0660f-22" value="&lt;font style=&quot;font-size: 14px;&quot;&gt;N&lt;/font&gt;" style="text;html=1;align=center;verticalAlign=middle;resizable=0;points=[];autosize=1;strokeColor=none;fillColor=none;" parent="1" vertex="1">
          <mxGeometry x="255" y="420" width="30" height="30" as="geometry" />
        </mxCell>
        <mxCell id="8VEzX88aH72CJWX0660f-23" value="&lt;font style=&quot;font-size: 14px;&quot;&gt;1&lt;/font&gt;" style="text;html=1;align=center;verticalAlign=middle;resizable=0;points=[];autosize=1;strokeColor=none;fillColor=none;" parent="1" vertex="1">
          <mxGeometry x="255" y="302" width="30" height="30" as="geometry" />
        </mxCell>
        <mxCell id="8VEzX88aH72CJWX0660f-26" value="&lt;font style=&quot;font-size: 14px;&quot;&gt;N&lt;/font&gt;" style="text;html=1;align=center;verticalAlign=middle;resizable=0;points=[];autosize=1;strokeColor=none;fillColor=none;" parent="1" vertex="1">
          <mxGeometry x="970" y="422" width="30" height="30" as="geometry" />
        </mxCell>
        <mxCell id="8VEzX88aH72CJWX0660f-27" value="&lt;font style=&quot;font-size: 14px;&quot;&gt;1&lt;/font&gt;" style="text;html=1;align=center;verticalAlign=middle;resizable=0;points=[];autosize=1;strokeColor=none;fillColor=none;" parent="1" vertex="1">
          <mxGeometry x="970" y="302" width="30" height="30" as="geometry" />
        </mxCell>
        <mxCell id="8VEzX88aH72CJWX0660f-30" value="&lt;font style=&quot;font-size: 14px;&quot;&gt;Nome&lt;/font&gt;" style="ellipse;whiteSpace=wrap;html=1;" parent="1" vertex="1">
          <mxGeometry x="90" y="257" width="120" height="30" as="geometry" />
        </mxCell>
        <mxCell id="8VEzX88aH72CJWX0660f-32" value="&lt;font style=&quot;font-size: 14px;&quot;&gt;Nome&lt;/font&gt;" style="ellipse;whiteSpace=wrap;html=1;" parent="1" vertex="1">
          <mxGeometry x="20" y="497" width="120" height="40" as="geometry" />
        </mxCell>
        <mxCell id="8VEzX88aH72CJWX0660f-33" value="&lt;font style=&quot;font-size: 14px;&quot;&gt;Data de Nasc&lt;/font&gt;" style="ellipse;whiteSpace=wrap;html=1;" parent="1" vertex="1">
          <mxGeometry x="20" y="432" width="120" height="40" as="geometry" />
        </mxCell>
        <mxCell id="8VEzX88aH72CJWX0660f-45" style="edgeStyle=orthogonalEdgeStyle;rounded=0;orthogonalLoop=1;jettySize=auto;html=1;entryX=1;entryY=0.5;entryDx=0;entryDy=0;endArrow=none;endFill=0;" parent="1" source="8VEzX88aH72CJWX0660f-44" target="8VEzX88aH72CJWX0660f-4" edge="1">
          <mxGeometry relative="1" as="geometry" />
        </mxCell>
        <mxCell id="8VEzX88aH72CJWX0660f-44" value="&lt;font style=&quot;font-size: 14px;&quot;&gt;Nome&lt;/font&gt;" style="ellipse;whiteSpace=wrap;html=1;" parent="1" vertex="1">
          <mxGeometry x="1070" y="467" width="120" height="30" as="geometry" />
        </mxCell>
        <mxCell id="dy4QvHthk6uzmk_Si4YG-2" value="&lt;font style=&quot;font-size: 14px;&quot;&gt;(N...1)&lt;/font&gt;" style="text;html=1;align=center;verticalAlign=middle;resizable=0;points=[];autosize=1;strokeColor=none;fillColor=none;" parent="1" vertex="1">
          <mxGeometry x="760" y="412" width="60" height="30" as="geometry" />
        </mxCell>
        <mxCell id="dy4QvHthk6uzmk_Si4YG-15" style="edgeStyle=orthogonalEdgeStyle;rounded=0;orthogonalLoop=1;jettySize=auto;html=1;exitX=0;exitY=0.5;exitDx=0;exitDy=0;entryX=1;entryY=0.5;entryDx=0;entryDy=0;endArrow=none;endFill=0;" parent="1" source="dy4QvHthk6uzmk_Si4YG-5" target="dy4QvHthk6uzmk_Si4YG-10" edge="1">
          <mxGeometry relative="1" as="geometry" />
        </mxCell>
        <mxCell id="dy4QvHthk6uzmk_Si4YG-5" value="&lt;font style=&quot;font-size: 14px;&quot;&gt;Possui&lt;/font&gt;" style="rhombus;whiteSpace=wrap;html=1;" parent="1" vertex="1">
          <mxGeometry x="190" y="572" width="80" height="80" as="geometry" />
        </mxCell>
        <mxCell id="dy4QvHthk6uzmk_Si4YG-14" style="edgeStyle=orthogonalEdgeStyle;rounded=0;orthogonalLoop=1;jettySize=auto;html=1;exitX=1;exitY=0.5;exitDx=0;exitDy=0;entryX=0;entryY=0.5;entryDx=0;entryDy=0;endArrow=none;endFill=0;" parent="1" source="dy4QvHthk6uzmk_Si4YG-8" target="dy4QvHthk6uzmk_Si4YG-11" edge="1">
          <mxGeometry relative="1" as="geometry" />
        </mxCell>
        <mxCell id="dy4QvHthk6uzmk_Si4YG-8" value="&lt;font style=&quot;font-size: 14px;&quot;&gt;Possui&lt;/font&gt;" style="rhombus;whiteSpace=wrap;html=1;" parent="1" vertex="1">
          <mxGeometry x="310" y="572" width="80" height="80" as="geometry" />
        </mxCell>
        <mxCell id="dy4QvHthk6uzmk_Si4YG-10" value="&lt;font style=&quot;font-size: 14px;&quot;&gt;Tipo de Pet&lt;/font&gt;" style="rounded=0;whiteSpace=wrap;html=1;" parent="1" vertex="1">
          <mxGeometry x="20" y="582" width="120" height="60" as="geometry" />
        </mxCell>
        <mxCell id="dy4QvHthk6uzmk_Si4YG-11" value="&lt;span style=&quot;font-size: 14px;&quot;&gt;Raça&lt;/span&gt;" style="rounded=0;whiteSpace=wrap;html=1;" parent="1" vertex="1">
          <mxGeometry x="430" y="582" width="120" height="60" as="geometry" />
        </mxCell>
        <mxCell id="dy4QvHthk6uzmk_Si4YG-16" value="&lt;font style=&quot;font-size: 14px;&quot;&gt;(N...1)&lt;/font&gt;" style="text;html=1;align=center;verticalAlign=middle;resizable=0;points=[];autosize=1;strokeColor=none;fillColor=none;" parent="1" vertex="1">
          <mxGeometry x="200" y="652" width="60" height="30" as="geometry" />
        </mxCell>
        <mxCell id="dy4QvHthk6uzmk_Si4YG-17" value="&lt;font style=&quot;font-size: 14px;&quot;&gt;(1...N)&lt;/font&gt;" style="text;html=1;align=center;verticalAlign=middle;resizable=0;points=[];autosize=1;strokeColor=none;fillColor=none;" parent="1" vertex="1">
          <mxGeometry x="320" y="652" width="60" height="30" as="geometry" />
        </mxCell>
        <mxCell id="dy4QvHthk6uzmk_Si4YG-20" value="" style="edgeStyle=orthogonalEdgeStyle;rounded=0;orthogonalLoop=1;jettySize=auto;html=1;exitX=0;exitY=0.5;exitDx=0;exitDy=0;entryX=1;entryY=0.5;entryDx=0;entryDy=0;endArrow=none;endFill=0;" parent="1" source="8VEzX88aH72CJWX0660f-4" target="dy4QvHthk6uzmk_Si4YG-18" edge="1">
          <mxGeometry relative="1" as="geometry">
            <Array as="points">
              <mxPoint x="410" y="482" />
            </Array>
            <mxPoint x="910" y="482" as="sourcePoint" />
            <mxPoint x="350" y="482" as="targetPoint" />
          </mxGeometry>
        </mxCell>
        <mxCell id="dy4QvHthk6uzmk_Si4YG-18" value="&lt;font style=&quot;font-size: 14px;&quot;&gt;Atendimento&lt;/font&gt;" style="rounded=0;whiteSpace=wrap;html=1;" parent="1" vertex="1">
          <mxGeometry x="560" y="452" width="120" height="60" as="geometry" />
        </mxCell>
        <mxCell id="8VEzX88aH72CJWX0660f-14" value="&lt;font style=&quot;font-size: 14px;&quot;&gt;Realiza&lt;/font&gt;" style="rhombus;whiteSpace=wrap;html=1;" parent="1" vertex="1">
          <mxGeometry x="750" y="442" width="80" height="80" as="geometry" />
        </mxCell>
        <mxCell id="dy4QvHthk6uzmk_Si4YG-21" value="&lt;font style=&quot;font-size: 14px;&quot;&gt;(1...N)&lt;/font&gt;" style="text;html=1;align=center;verticalAlign=middle;resizable=0;points=[];autosize=1;strokeColor=none;fillColor=none;" parent="1" vertex="1">
          <mxGeometry x="420" y="412" width="60" height="30" as="geometry" />
        </mxCell>
        <mxCell id="dy4QvHthk6uzmk_Si4YG-22" value="&lt;span style=&quot;font-size: 14px;&quot;&gt;Possui&lt;/span&gt;" style="rhombus;whiteSpace=wrap;html=1;" parent="1" vertex="1">
          <mxGeometry x="410" y="442" width="80" height="80" as="geometry" />
        </mxCell>
        <mxCell id="0CO8TYvsy7EReC5xeBp7-1" value="&lt;font style=&quot;font-size: 14px;&quot;&gt;Conceitual&lt;/font&gt;" style="text;html=1;align=center;verticalAlign=middle;resizable=0;points=[];autosize=1;strokeColor=#b85450;fillColor=#f8cecc;" vertex="1" parent="1">
          <mxGeometry x="550" y="200" width="90" height="30" as="geometry" />
        </mxCell>
        <mxCell id="0CO8TYvsy7EReC5xeBp7-2" value="&lt;font style=&quot;font-size: 14px;&quot;&gt;Lógico&lt;br&gt;&lt;/font&gt;" style="text;html=1;align=center;verticalAlign=middle;resizable=0;points=[];autosize=1;strokeColor=#b85450;fillColor=#f8cecc;" vertex="1" parent="1">
          <mxGeometry x="565" y="730" width="60" height="30" as="geometry" />
        </mxCell>
        <mxCell id="0CO8TYvsy7EReC5xeBp7-3" value="&lt;font style=&quot;font-size: 14px;&quot;&gt;Físico&lt;br&gt;&lt;/font&gt;" style="text;html=1;align=center;verticalAlign=middle;resizable=0;points=[];autosize=1;strokeColor=#b85450;fillColor=#f8cecc;" vertex="1" parent="1">
          <mxGeometry x="565" y="820" width="60" height="30" as="geometry" />
        </mxCell>
        <mxCell id="0CO8TYvsy7EReC5xeBp7-7" style="edgeStyle=orthogonalEdgeStyle;rounded=0;orthogonalLoop=1;jettySize=auto;html=1;exitX=0.5;exitY=1;exitDx=0;exitDy=0;entryX=0.5;entryY=0;entryDx=0;entryDy=0;endArrow=none;endFill=0;" edge="1" parent="1" source="0CO8TYvsy7EReC5xeBp7-5" target="dy4QvHthk6uzmk_Si4YG-18">
          <mxGeometry relative="1" as="geometry" />
        </mxCell>
        <mxCell id="0CO8TYvsy7EReC5xeBp7-5" value="&lt;font style=&quot;font-size: 14px;&quot;&gt;Data&lt;/font&gt;" style="ellipse;whiteSpace=wrap;html=1;" vertex="1" parent="1">
          <mxGeometry x="480" y="362" width="120" height="40" as="geometry" />
        </mxCell>
        <mxCell id="0CO8TYvsy7EReC5xeBp7-8" style="edgeStyle=orthogonalEdgeStyle;rounded=0;orthogonalLoop=1;jettySize=auto;html=1;exitX=0.5;exitY=1;exitDx=0;exitDy=0;endArrow=none;endFill=0;" edge="1" parent="1" source="0CO8TYvsy7EReC5xeBp7-6">
          <mxGeometry relative="1" as="geometry">
            <mxPoint x="620" y="450" as="targetPoint" />
          </mxGeometry>
        </mxCell>
        <mxCell id="0CO8TYvsy7EReC5xeBp7-6" value="&lt;font style=&quot;font-size: 14px;&quot;&gt;Valor&lt;/font&gt;" style="ellipse;whiteSpace=wrap;html=1;" vertex="1" parent="1">
          <mxGeometry x="640" y="362" width="120" height="40" as="geometry" />
        </mxCell>
      </root>
    </mxGraphModel>
  </diagram>
</mxfile>
